<svg width="149" height="27" viewBox="0 0 149 27" fill="none" xmlns="http://www.w3.org/2000/svg">
<path d="M1 15.9107L4.87097 10.8214L1 8.78571L7.45161 2L10.3548 5.05357H16.1613V10.8214L21 15.9107L16.1613 21L11.3226 15.9107L6.48387 21L1.64516 15.9107" stroke="white"/>
<path d="M31.31 21V5.6H37.8C39.4427 5.6 40.8873 5.92267 42.134 6.568C43.3953 7.21333 44.3707 8.11533 45.06 9.274C45.764 10.4327 46.116 11.7747 46.116 13.3C46.116 14.8253 45.764 16.1673 45.06 17.326C44.3707 18.4847 43.3953 19.3867 42.134 20.032C40.8873 20.6773 39.4427 21 37.8 21H31.31ZM33.51 19.086H37.668C38.944 19.086 40.044 18.844 40.968 18.36C41.9067 17.876 42.6327 17.2013 43.146 16.336C43.6593 15.456 43.916 14.444 43.916 13.3C43.916 12.1413 43.6593 11.1293 43.146 10.264C42.6327 9.39867 41.9067 8.724 40.968 8.24C40.044 7.756 38.944 7.514 37.668 7.514H33.51V19.086ZM49.1778 21V9.34H51.2018V12.508L51.0038 11.716C51.3264 10.9093 51.8691 10.2933 52.6318 9.868C53.3944 9.44267 54.3331 9.23 55.4478 9.23V11.276C55.3598 11.2613 55.2718 11.254 55.1838 11.254C55.1104 11.254 55.0371 11.254 54.9638 11.254C53.8344 11.254 52.9398 11.5913 52.2798 12.266C51.6198 12.9407 51.2898 13.916 51.2898 15.192V21H49.1778ZM63.1354 21.132C61.8887 21.132 60.7887 20.8753 59.8354 20.362C58.8967 19.8487 58.1634 19.1447 57.6354 18.25C57.1221 17.3553 56.8654 16.3287 56.8654 15.17C56.8654 14.0113 57.1147 12.9847 57.6134 12.09C58.1267 11.1953 58.8234 10.4987 59.7034 10C60.5981 9.48667 61.6027 9.23 62.7174 9.23C63.8467 9.23 64.8441 9.47933 65.7094 9.978C66.5747 10.4767 67.2494 11.1807 67.7334 12.09C68.2321 12.9847 68.4814 14.0333 68.4814 15.236C68.4814 15.324 68.4741 15.4267 68.4594 15.544C68.4594 15.6613 68.4521 15.7713 68.4374 15.874H58.5154V14.356H67.3374L66.4794 14.884C66.4941 14.136 66.3401 13.4687 66.0174 12.882C65.6947 12.2953 65.2474 11.8407 64.6754 11.518C64.1181 11.1807 63.4654 11.012 62.7174 11.012C61.9841 11.012 61.3314 11.1807 60.7594 11.518C60.1874 11.8407 59.7401 12.3027 59.4174 12.904C59.0947 13.4907 58.9334 14.1653 58.9334 14.928V15.28C58.9334 16.0573 59.1094 16.754 59.4614 17.37C59.8281 17.9713 60.3341 18.4407 60.9794 18.778C61.6247 19.1153 62.3654 19.284 63.2014 19.284C63.8907 19.284 64.5141 19.1667 65.0714 18.932C65.6434 18.6973 66.1421 18.3453 66.5674 17.876L67.7334 19.24C67.2054 19.856 66.5454 20.3253 65.7534 20.648C64.9761 20.9707 64.1034 21.132 63.1354 21.132ZM78.3298 21V18.536L78.2198 18.074V13.872C78.2198 12.9773 77.9558 12.288 77.4278 11.804C76.9145 11.3053 76.1372 11.056 75.0958 11.056C74.4065 11.056 73.7318 11.1733 73.0718 11.408C72.4118 11.628 71.8545 11.9287 71.3998 12.31L70.5198 10.726C71.1212 10.242 71.8398 9.87533 72.6758 9.626C73.5265 9.362 74.4138 9.23 75.3378 9.23C76.9365 9.23 78.1685 9.61867 79.0338 10.396C79.8992 11.1733 80.3318 12.3613 80.3318 13.96V21H78.3298ZM74.5018 21.132C73.6365 21.132 72.8738 20.9853 72.2138 20.692C71.5685 20.3987 71.0698 19.9953 70.7178 19.482C70.3658 18.954 70.1898 18.36 70.1898 17.7C70.1898 17.0693 70.3365 16.4973 70.6298 15.984C70.9378 15.4707 71.4292 15.06 72.1038 14.752C72.7932 14.444 73.7172 14.29 74.8758 14.29H78.5718V15.808H74.9638C73.9078 15.808 73.1965 15.984 72.8298 16.336C72.4632 16.688 72.2798 17.1133 72.2798 17.612C72.2798 18.184 72.5072 18.646 72.9618 18.998C73.4165 19.3353 74.0472 19.504 74.8538 19.504C75.6458 19.504 76.3352 19.328 76.9218 18.976C77.5232 18.624 77.9558 18.1107 78.2198 17.436L78.6378 18.888C78.3592 19.5773 77.8678 20.1273 77.1638 20.538C76.4598 20.934 75.5725 21.132 74.5018 21.132ZM98.8263 9.23C99.7649 9.23 100.594 9.41333 101.312 9.78C102.031 10.1467 102.588 10.704 102.984 11.452C103.395 12.2 103.6 13.146 103.6 14.29V21H101.488V14.532C101.488 13.4027 101.224 12.552 100.696 11.98C100.168 11.408 99.4276 11.122 98.4743 11.122C97.7703 11.122 97.1543 11.2687 96.6263 11.562C96.0983 11.8553 95.6876 12.288 95.3943 12.86C95.1156 13.432 94.9763 14.1433 94.9763 14.994V21H92.8643V14.532C92.8643 13.4027 92.6003 12.552 92.0723 11.98C91.5589 11.408 90.8183 11.122 89.8503 11.122C89.1609 11.122 88.5523 11.2687 88.0243 11.562C87.4963 11.8553 87.0856 12.288 86.7923 12.86C86.4989 13.432 86.3523 14.1433 86.3523 14.994V21H84.2403V9.34H86.2643V12.442L85.9343 11.65C86.3009 10.8873 86.8656 10.2933 87.6283 9.868C88.3909 9.44267 89.2783 9.23 90.2903 9.23C91.4049 9.23 92.3656 9.50867 93.1723 10.066C93.9789 10.6087 94.5069 11.4373 94.7563 12.552L93.8983 12.2C94.2503 11.3053 94.8663 10.5867 95.7463 10.044C96.6263 9.50133 97.6529 9.23 98.8263 9.23ZM114.68 21.176C113.507 21.176 112.422 20.9853 111.424 20.604C110.442 20.208 109.584 19.658 108.85 18.954C108.132 18.2353 107.567 17.3993 107.156 16.446C106.746 15.4927 106.54 14.444 106.54 13.3C106.54 12.156 106.746 11.1073 107.156 10.154C107.567 9.20067 108.139 8.372 108.872 7.668C109.606 6.94933 110.464 6.39933 111.446 6.018C112.444 5.622 113.529 5.424 114.702 5.424C115.89 5.424 116.983 5.62933 117.98 6.04C118.992 6.436 119.85 7.03 120.554 7.822L119.124 9.208C118.538 8.592 117.878 8.13733 117.144 7.844C116.411 7.536 115.626 7.382 114.79 7.382C113.925 7.382 113.118 7.52867 112.37 7.822C111.637 8.11533 110.999 8.526 110.456 9.054C109.914 9.582 109.488 10.2127 109.18 10.946C108.887 11.6647 108.74 12.4493 108.74 13.3C108.74 14.1507 108.887 14.9427 109.18 15.676C109.488 16.3947 109.914 17.018 110.456 17.546C110.999 18.074 111.637 18.4847 112.37 18.778C113.118 19.0713 113.925 19.218 114.79 19.218C115.626 19.218 116.411 19.0713 117.144 18.778C117.878 18.47 118.538 18.0007 119.124 17.37L120.554 18.756C119.85 19.548 118.992 20.1493 117.98 20.56C116.983 20.9707 115.883 21.176 114.68 21.176ZM123.385 21V9.34H125.497V21H123.385ZM124.441 7.096C124.03 7.096 123.685 6.964 123.407 6.7C123.143 6.436 123.011 6.11333 123.011 5.732C123.011 5.336 123.143 5.006 123.407 4.742C123.685 4.478 124.03 4.346 124.441 4.346C124.851 4.346 125.189 4.478 125.453 4.742C125.731 4.99133 125.871 5.30667 125.871 5.688C125.871 6.084 125.739 6.42133 125.475 6.7C125.211 6.964 124.866 7.096 124.441 7.096ZM133.533 21.132C132.36 21.132 131.451 20.8167 130.805 20.186C130.16 19.5553 129.837 18.6533 129.837 17.48V6.788H131.949V17.392C131.949 18.0227 132.103 18.5067 132.411 18.844C132.734 19.1813 133.189 19.35 133.775 19.35C134.435 19.35 134.985 19.1667 135.425 18.8L136.085 20.318C135.763 20.5967 135.374 20.802 134.919 20.934C134.479 21.066 134.017 21.132 133.533 21.132ZM127.857 11.078V9.34H135.293V11.078H127.857ZM138.93 25.4C138.373 25.4 137.83 25.3047 137.302 25.114C136.774 24.938 136.319 24.674 135.938 24.322L136.84 22.738C137.133 23.0167 137.456 23.2293 137.808 23.376C138.16 23.5227 138.534 23.596 138.93 23.596C139.443 23.596 139.869 23.464 140.206 23.2C140.543 22.936 140.859 22.4667 141.152 21.792L141.878 20.186L142.098 19.922L146.674 9.34H148.742L143.088 22.166C142.751 22.9873 142.369 23.6327 141.944 24.102C141.533 24.5713 141.079 24.9013 140.58 25.092C140.081 25.2973 139.531 25.4 138.93 25.4ZM141.702 21.374L136.378 9.34H138.578L143.11 19.724L141.702 21.374Z" fill="white"/>
</svg>
